<svg xmlns="http://www.w3.org/2000/svg" xmlns:xlink="http://www.w3.org/1999/xlink" width="193" zoomAndPan="magnify" viewBox="0 0 144.75 144.749998" height="193" preserveAspectRatio="xMidYMid meet" version="1.0"><defs><g/><clipPath id="1e36311069"><path d="M 0 0 L 143.75 0 L 143.75 143.75 L 0 143.75 Z M 0 0 " clip-rule="nonzero"/></clipPath></defs><g clip-path="url(#1e36311069)"><path fill="#000000" d="M 21.050781 21.050781 C 8.042969 34.0625 0 52.03125 0 71.875 C 0 111.570312 32.183594 143.75 71.875 143.75 C 111.570312 143.75 143.75 111.570312 143.75 71.875 C 143.75 33.15625 113.105469 1.667969 74.75 0.144531 L 74.75 0 L 69 0 L 69 40.25 L 74.75 40.25 L 74.75 5.894531 C 109.871094 7.417969 138 36.386719 138 71.875 C 138 108.335938 108.335938 138 71.875 138 C 35.414062 138 5.75 108.335938 5.75 71.875 C 5.75 53.648438 13.167969 37.117188 25.140625 25.140625 Z M 21.050781 21.050781 " fill-opacity="1" fill-rule="nonzero"/></g><path fill="#000000" d="M 77.972656 77.976562 C 81.339844 74.605469 81.339844 69.148438 77.972656 65.78125 C 74.601562 62.410156 37.316406 37.316406 37.316406 37.316406 C 37.316406 37.316406 62.40625 74.605469 65.773438 77.976562 C 69.144531 81.339844 74.605469 81.339844 77.972656 77.976562 Z M 77.972656 77.976562 " fill-opacity="1" fill-rule="nonzero"/><g fill="#000000" fill-opacity="1"><g transform="translate(27.349592, 112.719398)"><g><path d="M 0.984375 0 L 0.984375 -11.171875 L 5.796875 -11.171875 C 7.191406 -11.171875 8.3125 -10.828125 9.15625 -10.140625 C 10 -9.453125 10.421875 -8.492188 10.421875 -7.265625 L 10.421875 -7.234375 C 10.421875 -6.578125 10.300781 -5.992188 10.0625 -5.484375 C 9.820312 -4.984375 9.488281 -4.5625 9.0625 -4.21875 C 8.644531 -3.882812 8.140625 -3.628906 7.546875 -3.453125 C 6.960938 -3.273438 6.328125 -3.1875 5.640625 -3.1875 L 4.09375 -3.1875 L 4.09375 0 Z M 4.09375 -5.625 L 5.578125 -5.625 C 6.117188 -5.625 6.546875 -5.757812 6.859375 -6.03125 C 7.179688 -6.300781 7.34375 -6.65625 7.34375 -7.09375 L 7.34375 -7.125 C 7.34375 -7.601562 7.179688 -7.960938 6.859375 -8.203125 C 6.535156 -8.453125 6.101562 -8.578125 5.5625 -8.578125 L 4.09375 -8.578125 Z M 4.09375 -5.625 "/></g></g></g><g fill="#000000" fill-opacity="1"><g transform="translate(39.438122, 112.719398)"><g><path d="M 5.21875 0.203125 C 4.539062 0.203125 3.90625 0.0820312 3.3125 -0.15625 C 2.726562 -0.394531 2.226562 -0.710938 1.8125 -1.109375 C 1.40625 -1.515625 1.082031 -1.992188 0.84375 -2.546875 C 0.601562 -3.097656 0.484375 -3.675781 0.484375 -4.28125 L 0.484375 -4.3125 C 0.484375 -4.914062 0.601562 -5.492188 0.84375 -6.046875 C 1.082031 -6.597656 1.410156 -7.078125 1.828125 -7.484375 C 2.242188 -7.898438 2.742188 -8.226562 3.328125 -8.46875 C 3.921875 -8.707031 4.5625 -8.828125 5.25 -8.828125 C 5.945312 -8.828125 6.582031 -8.707031 7.15625 -8.46875 C 7.738281 -8.226562 8.238281 -7.90625 8.65625 -7.5 C 9.082031 -7.101562 9.414062 -6.628906 9.65625 -6.078125 C 9.894531 -5.523438 10.015625 -4.945312 10.015625 -4.34375 L 10.015625 -4.3125 C 10.015625 -3.707031 9.894531 -3.125 9.65625 -2.5625 C 9.414062 -2.007812 9.082031 -1.53125 8.65625 -1.125 C 8.238281 -0.71875 7.734375 -0.394531 7.140625 -0.15625 C 6.554688 0.0820312 5.914062 0.203125 5.21875 0.203125 Z M 5.25 -2.359375 C 5.789062 -2.359375 6.226562 -2.546875 6.5625 -2.921875 C 6.90625 -3.304688 7.078125 -3.757812 7.078125 -4.28125 L 7.078125 -4.3125 C 7.078125 -4.84375 6.898438 -5.300781 6.546875 -5.6875 C 6.191406 -6.082031 5.75 -6.28125 5.21875 -6.28125 C 4.675781 -6.28125 4.238281 -6.085938 3.90625 -5.703125 C 3.582031 -5.316406 3.421875 -4.863281 3.421875 -4.34375 L 3.421875 -4.3125 C 3.421875 -3.789062 3.59375 -3.332031 3.9375 -2.9375 C 4.28125 -2.550781 4.71875 -2.359375 5.25 -2.359375 Z M 5.25 -2.359375 "/></g></g></g><g fill="#000000" fill-opacity="1"><g transform="translate(51.255188, 112.719398)"><g><path d="M 0.8125 0 L 0.8125 -8.640625 L 3.84375 -8.640625 L 3.84375 -7.453125 C 4.125 -7.816406 4.472656 -8.132812 4.890625 -8.40625 C 5.304688 -8.6875 5.816406 -8.828125 6.421875 -8.828125 C 6.992188 -8.828125 7.492188 -8.703125 7.921875 -8.453125 C 8.347656 -8.210938 8.675781 -7.867188 8.90625 -7.421875 C 9.28125 -7.847656 9.695312 -8.1875 10.15625 -8.4375 C 10.625 -8.695312 11.171875 -8.828125 11.796875 -8.828125 C 12.710938 -8.828125 13.429688 -8.550781 13.953125 -8 C 14.484375 -7.445312 14.75 -6.671875 14.75 -5.671875 L 14.75 0 L 11.71875 0 L 11.71875 -4.6875 C 11.71875 -5.15625 11.609375 -5.515625 11.390625 -5.765625 C 11.179688 -6.015625 10.898438 -6.140625 10.546875 -6.140625 C 10.179688 -6.140625 9.878906 -6.015625 9.640625 -5.765625 C 9.410156 -5.515625 9.296875 -5.15625 9.296875 -4.6875 L 9.296875 0 L 6.28125 0 L 6.28125 -4.6875 C 6.28125 -5.15625 6.171875 -5.515625 5.953125 -5.765625 C 5.734375 -6.015625 5.441406 -6.140625 5.078125 -6.140625 C 4.710938 -6.140625 4.414062 -6.015625 4.1875 -5.765625 C 3.957031 -5.515625 3.84375 -5.15625 3.84375 -4.6875 L 3.84375 0 Z M 0.8125 0 "/></g></g></g><g fill="#000000" fill-opacity="1"><g transform="translate(68.102351, 112.719398)"><g><path d="M 5.21875 0.203125 C 4.539062 0.203125 3.90625 0.0820312 3.3125 -0.15625 C 2.726562 -0.394531 2.226562 -0.710938 1.8125 -1.109375 C 1.40625 -1.515625 1.082031 -1.992188 0.84375 -2.546875 C 0.601562 -3.097656 0.484375 -3.675781 0.484375 -4.28125 L 0.484375 -4.3125 C 0.484375 -4.914062 0.601562 -5.492188 0.84375 -6.046875 C 1.082031 -6.597656 1.410156 -7.078125 1.828125 -7.484375 C 2.242188 -7.898438 2.742188 -8.226562 3.328125 -8.46875 C 3.921875 -8.707031 4.5625 -8.828125 5.25 -8.828125 C 5.945312 -8.828125 6.582031 -8.707031 7.15625 -8.46875 C 7.738281 -8.226562 8.238281 -7.90625 8.65625 -7.5 C 9.082031 -7.101562 9.414062 -6.628906 9.65625 -6.078125 C 9.894531 -5.523438 10.015625 -4.945312 10.015625 -4.34375 L 10.015625 -4.3125 C 10.015625 -3.707031 9.894531 -3.125 9.65625 -2.5625 C 9.414062 -2.007812 9.082031 -1.53125 8.65625 -1.125 C 8.238281 -0.71875 7.734375 -0.394531 7.140625 -0.15625 C 6.554688 0.0820312 5.914062 0.203125 5.21875 0.203125 Z M 5.25 -2.359375 C 5.789062 -2.359375 6.226562 -2.546875 6.5625 -2.921875 C 6.90625 -3.304688 7.078125 -3.757812 7.078125 -4.28125 L 7.078125 -4.3125 C 7.078125 -4.84375 6.898438 -5.300781 6.546875 -5.6875 C 6.191406 -6.082031 5.75 -6.28125 5.21875 -6.28125 C 4.675781 -6.28125 4.238281 -6.085938 3.90625 -5.703125 C 3.582031 -5.316406 3.421875 -4.863281 3.421875 -4.34375 L 3.421875 -4.3125 C 3.421875 -3.789062 3.59375 -3.332031 3.9375 -2.9375 C 4.28125 -2.550781 4.71875 -2.359375 5.25 -2.359375 Z M 5.25 -2.359375 "/></g></g></g><g fill="#000000" fill-opacity="1"><g transform="translate(79.919418, 112.719398)"><g><path d="M 0.8125 0 L 0.8125 -8.640625 L 3.84375 -8.640625 L 3.84375 -7.453125 C 4.125 -7.816406 4.472656 -8.132812 4.890625 -8.40625 C 5.304688 -8.6875 5.816406 -8.828125 6.421875 -8.828125 C 6.992188 -8.828125 7.492188 -8.703125 7.921875 -8.453125 C 8.347656 -8.210938 8.675781 -7.867188 8.90625 -7.421875 C 9.28125 -7.847656 9.695312 -8.1875 10.15625 -8.4375 C 10.625 -8.695312 11.171875 -8.828125 11.796875 -8.828125 C 12.710938 -8.828125 13.429688 -8.550781 13.953125 -8 C 14.484375 -7.445312 14.75 -6.671875 14.75 -5.671875 L 14.75 0 L 11.71875 0 L 11.71875 -4.6875 C 11.71875 -5.15625 11.609375 -5.515625 11.390625 -5.765625 C 11.179688 -6.015625 10.898438 -6.140625 10.546875 -6.140625 C 10.179688 -6.140625 9.878906 -6.015625 9.640625 -5.765625 C 9.410156 -5.515625 9.296875 -5.15625 9.296875 -4.6875 L 9.296875 0 L 6.28125 0 L 6.28125 -4.6875 C 6.28125 -5.15625 6.171875 -5.515625 5.953125 -5.765625 C 5.734375 -6.015625 5.441406 -6.140625 5.078125 -6.140625 C 4.710938 -6.140625 4.414062 -6.015625 4.1875 -5.765625 C 3.957031 -5.515625 3.84375 -5.15625 3.84375 -4.6875 L 3.84375 0 Z M 0.8125 0 "/></g></g></g><g fill="#000000" fill-opacity="1"><g transform="translate(96.766584, 112.719398)"><g><path d="M 3.296875 0.1875 C 2.472656 0.1875 1.785156 -0.0390625 1.234375 -0.5 C 0.679688 -0.96875 0.40625 -1.625 0.40625 -2.46875 L 0.40625 -2.5 C 0.40625 -3.394531 0.710938 -4.070312 1.328125 -4.53125 C 1.953125 -4.988281 2.769531 -5.21875 3.78125 -5.21875 C 4.175781 -5.21875 4.5625 -5.1875 4.9375 -5.125 C 5.3125 -5.0625 5.617188 -4.984375 5.859375 -4.890625 L 5.859375 -5.03125 C 5.859375 -5.488281 5.710938 -5.835938 5.421875 -6.078125 C 5.140625 -6.328125 4.710938 -6.453125 4.140625 -6.453125 C 3.679688 -6.453125 3.265625 -6.40625 2.890625 -6.3125 C 2.515625 -6.226562 2.128906 -6.113281 1.734375 -5.96875 L 1.125 -8.09375 C 1.613281 -8.300781 2.132812 -8.460938 2.6875 -8.578125 C 3.238281 -8.703125 3.878906 -8.765625 4.609375 -8.765625 C 5.378906 -8.765625 6.035156 -8.671875 6.578125 -8.484375 C 7.117188 -8.304688 7.5625 -8.050781 7.90625 -7.71875 C 8.238281 -7.394531 8.472656 -7.003906 8.609375 -6.546875 C 8.753906 -6.097656 8.828125 -5.570312 8.828125 -4.96875 L 8.828125 0 L 5.84375 0 L 5.84375 -0.90625 C 5.539062 -0.582031 5.179688 -0.316406 4.765625 -0.109375 C 4.347656 0.0859375 3.859375 0.1875 3.296875 0.1875 Z M 4.375 -1.703125 C 4.820312 -1.703125 5.1875 -1.832031 5.46875 -2.09375 C 5.75 -2.351562 5.890625 -2.695312 5.890625 -3.125 L 5.890625 -3.53125 C 5.734375 -3.59375 5.550781 -3.644531 5.34375 -3.6875 C 5.132812 -3.726562 4.914062 -3.75 4.6875 -3.75 C 4.257812 -3.75 3.921875 -3.648438 3.671875 -3.453125 C 3.429688 -3.265625 3.3125 -3.007812 3.3125 -2.6875 L 3.3125 -2.65625 C 3.3125 -2.351562 3.410156 -2.117188 3.609375 -1.953125 C 3.804688 -1.785156 4.0625 -1.703125 4.375 -1.703125 Z M 4.375 -1.703125 "/></g></g></g><g fill="#000000" fill-opacity="1"><g transform="translate(107.673449, 112.719398)"><g><path d="M 5 0.203125 C 4.351562 0.203125 3.75 0.0820312 3.1875 -0.15625 C 2.632812 -0.394531 2.15625 -0.710938 1.75 -1.109375 C 1.351562 -1.515625 1.039062 -1.992188 0.8125 -2.546875 C 0.59375 -3.097656 0.484375 -3.675781 0.484375 -4.28125 L 0.484375 -4.3125 C 0.484375 -4.914062 0.59375 -5.488281 0.8125 -6.03125 C 1.039062 -6.582031 1.351562 -7.0625 1.75 -7.46875 C 2.15625 -7.882812 2.644531 -8.210938 3.21875 -8.453125 C 3.789062 -8.691406 4.414062 -8.8125 5.09375 -8.8125 C 5.976562 -8.8125 6.722656 -8.632812 7.328125 -8.28125 C 7.929688 -7.9375 8.414062 -7.476562 8.78125 -6.90625 L 6.734375 -5.359375 C 6.523438 -5.640625 6.296875 -5.863281 6.046875 -6.03125 C 5.796875 -6.195312 5.488281 -6.28125 5.125 -6.28125 C 4.632812 -6.28125 4.226562 -6.085938 3.90625 -5.703125 C 3.582031 -5.316406 3.421875 -4.863281 3.421875 -4.34375 L 3.421875 -4.3125 C 3.421875 -3.757812 3.578125 -3.289062 3.890625 -2.90625 C 4.210938 -2.53125 4.628906 -2.34375 5.140625 -2.34375 C 5.503906 -2.34375 5.8125 -2.421875 6.0625 -2.578125 C 6.320312 -2.742188 6.566406 -2.960938 6.796875 -3.234375 L 8.828125 -1.765625 C 8.429688 -1.179688 7.925781 -0.707031 7.3125 -0.34375 C 6.707031 0.0195312 5.9375 0.203125 5 0.203125 Z M 5 0.203125 "/></g></g></g></svg>